<?xml version="1.0" encoding="utf-8"?>
<svg version="1.1" xmlns:xlink="http://www.w3.org/1999/xlink" width="417px" height="417px" xmlns="http://www.w3.org/2000/svg">
  <g transform="matrix(1 0 0 1 -880 -227 )">
    <path d="M 240.21 345.45  L 297.47 288.17  C 299.48 286.16  300.59 283.42  300.57 280.56  L 300.25 244.5  C 300.25 243.93  300.01 243.38  299.61 242.97  C 298.76 242.12  297.39 242.11  296.56 242.95  L 224.69 314.83  C 222.81 316.71  220.66 318.16  218.36 319.18  C 215.61 320.44  212.53 321.14  209.22 321.1  L 161.23 321.75  C 160.67 321.76  160.15 321.98  159.76 322.37  C 158.92 323.21  158.94 324.57  159.78 325.42  L 179.25 344.89  C 196.24 361.88  223.53 362.13  240.21 345.45  Z M 287.29 375.32  L 335.42 327.16  C 336.26 326.32  336.25 324.96  335.4 324.11  C 334.99 323.7  334.44 323.47  333.87 323.47  L 297.82 323.14  C 294.95 323.11  292.22 324.23  290.21 326.24  L 268.37 348.08  C 248.18 368.27  238.71 373.45  227.31 376.82  C 215.91 380.18  204.21 380.07  192.74 376.5  C 181.27 372.93  171.71 367.57  151.14 347  L 121.72 317.58  C 120.87 316.73  119.51 316.72  118.67 317.56  C 118.27 317.96  118.05 318.51  118.05 319.08  L 118.38 355.13  C 118.41 357.99  119.57 360.74  121.6 362.77  L 131.84 373.01  C 159.27 400.44  172.02 407.58  187.31 412.35  C 202.6 417.11  218.2 417.26  233.4 412.78  C 234.37 412.49  235.33 412.2  236.28 411.89  L 237.23 411.57  C 250.69 407.03  263.22 399.28  287.29 375.32  Z M 374.9 287.68  C 398.67 263.91  406.84 251.28  411.51 238.19  L 411.84 237.24  C 412.33 235.82  412.78 234.38  413.21 232.93  C 417.69 217.72  417.55 202.13  412.78 186.84  C 412.58 186.19  412.37 185.54  412.16 184.9  L 411.84 183.94  C 407.03 169.86  399.13 157.05  373.46 131.37  L 325.31 83.22  C 324.46 82.3699999999999  323.09 82.36  322.26 83.2  C 321.86 83.6  321.64 84.15  321.64 84.72  L 321.97 120.77  C 322 123.63  323.16 126.38  325.19 128.41  L 347.45 150.67  C 368.02 171.24  373.38 180.8  376.95 192.27  C 380.52 203.74  380.63 215.43  377.27 226.84  C 373.91 238.25  368.73 247.71  348.53 267.91  L 319.65 296.79  C 318.81 297.63  318.82 298.99  319.67 299.84  C 320.08 300.25  320.63 300.48  321.2 300.48  L 357.25 300.81  C 360.12 300.84  362.85 299.72  364.87 297.71  L 374.9 287.68  Z M 326.78 258.88  L 345.91 239.75  C 362.59 223.07  362.34 195.77  345.35 178.78  L 287 120.43  C 284.96 118.39  282.22 117.23  279.36 117.21  L 243.3 116.86  C 242.73 116.85  242.18 117.08  241.78 117.48  C 240.95 118.31  240.96 119.68  241.81 120.53  L 315 193.75  C 316.92 195.67  318.4 197.84  319.47 200.16  C 320.79 202.94  321.53 206.03  321.56 209.28  L 323.09 257.37  C 323.11 257.93  323.34 258.46  323.73 258.85  C 324.58 259.7  325.95 259.71  326.78 258.88  Z M 173.61 299.12  C 174.19 299.13  174.74 298.9  175.14 298.5  C 175.98 297.66  175.96 296.3  175.12 295.45  L 101.91 222.24  C 99.99 220.32  98.5 218.15  97.44 215.83  C 96.13 213.05  95.38 209.96  95.35 206.71  L 93.82 158.62  C 93.8 158.07  93.57 157.53  93.18 157.14  C 92.33 156.29  90.96 156.28  90.13 157.11  L 71 176.23  C 54.32 192.91  54.57 220.21  71.56 237.2  L 129.91 295.55  C 131.95 297.59  134.69 298.74  137.55 298.77  L 173.61 299.12  Z M 255.66 94.22  C 256.23 94.22  256.76 94  257.15 93.61  C 257.99 92.77  257.97 91.41  257.12 90.56  L 237.65 71.09  C 220.66 54.1  193.37 53.85  176.69 70.52  L 119.43 127.78  C 117.42 129.79  116.31 132.53  116.33 135.39  L 116.65 171.45  C 116.66 172.02  116.89 172.57  117.29 172.98  C 118.14 173.83  119.51 173.84  120.34 173  L 192.2 101.13  C 194.08 99.25  196.23 97.8  198.53 96.78  C 201.28 95.52  204.36 94.83  207.61 94.86  L 255.66 94.22  Z M 295.2 98.44  C 296.05 99.29  297.42 99.3  298.25 98.47  C 298.65 98.0700000000001  298.88 97.52  298.87 96.95  L 298.54 60.91  C 298.51 58.05  297.35 55.3  295.32 53.27  L 285.08 43.03  C 257.65 15.6  244.9 8.46000000000004  229.61 3.69000000000005  C 214.32 -1.06999999999994  198.72 -1.21999999999997  183.52 3.26000000000005  C 183.03 3.40000000000003  182.55 3.55000000000007  182.07 3.70000000000005  L 181.11 4.00000000000006  C 167.09 8.48000000000008  154.55 15.9100000000001  129.62 40.72  L 81.49 88.85  C 80.65 89.69  80.67 91.05  81.52 91.9  C 81.93 92.3100000000001  82.48 92.54  83.05 92.54  L 119.1 92.88  C 121.96 92.91  124.7 91.79  126.71 89.78  L 148.55 67.94  C 168.74 47.75  178.21 42.56  189.61 39.2  C 201.02 35.84  212.71 35.95  224.18 39.52  C 235.65 43.09  245.21 48.45  265.78 69.02  L 295.2 98.44  Z M 91.64 332.77  C 92.48 333.62  93.85 333.63  94.69 332.8  C 95.09 332.4  95.31 331.85  95.31 331.28  L 94.98 295.23  C 94.95 292.37  93.79 289.62  91.76 287.59  L 69.5 265.33  C 48.93 244.76  43.57 235.2  40 223.73  C 36.43 212.26  36.32 200.56  39.68 189.16  C 39.81 188.72  39.94 188.27  40.08 187.83  L 40.36 186.95  C 43.77 176.47  49.53 166.97  68.41 148.08  L 97.29 119.2  C 98.13 118.36  98.12 117  97.27 116.15  C 96.86 115.74  96.31 115.51  95.74 115.51  L 59.69 115.18  C 56.82 115.15  54.08 116.27  52.08 118.28  L 42.05 128.31  C 15.13 155.24  8.21999999999997 167.86  3.72999999999999 183.06  C -0.75 198.27  -0.610000000000014 213.86  4.16 229.16  L 4.47 230.13  C 9.18000000000001 244.83  16.49 257.5  42.62 283.75  L 91.64 332.77  Z " fill-rule="nonzero" fill="#ff6900" stroke="none" transform="matrix(1 0 0 1 880 227 )" />
  </g>
</svg>